<svg width="40" height="41" viewBox="0 0 40 41" fill="none" xmlns="http://www.w3.org/2000/svg">
<circle cx="20" cy="20.9517" r="20" fill="url(#paint0_linear_34_396)"/>
<path d="M26.5808 12.9517H14.4192C13.0462 12.9517 12 13.9978 12 15.3709V27.5324C12 28.9055 13.0462 29.9517 14.4192 29.9517H26.5808C27.9538 29.9517 29 28.9055 29 27.5324V15.3709C29 13.9978 27.9538 12.9517 26.5808 12.9517ZM20.5 26.5517C23.3115 26.5517 25.6 24.3286 25.6 21.6478C25.6 21.1901 25.5346 20.667 25.4038 20.2747H26.8423V27.2055C26.8423 27.5324 26.5808 27.8594 26.1885 27.8594H14.8115C14.4846 27.8594 14.1577 27.5978 14.1577 27.2055V20.2094H15.6615C15.5308 20.667 15.4654 21.1247 15.4654 21.5824C15.4 24.3286 17.6885 26.5517 20.5 26.5517ZM20.5 24.5901C18.6692 24.5901 17.2308 23.1517 17.2308 21.3863C17.2308 19.6209 18.6692 18.1824 20.5 18.1824C22.3308 18.1824 23.7692 19.6209 23.7692 21.3863C23.7692 23.217 22.3308 24.5901 20.5 24.5901ZM26.7769 17.594C26.7769 17.9863 26.45 18.3132 26.0577 18.3132H24.2269C23.8346 18.3132 23.5077 17.9863 23.5077 17.594V15.8286C23.5077 15.4363 23.8346 15.1094 24.2269 15.1094H26.0577C26.45 15.1094 26.7769 15.4363 26.7769 15.8286V17.594Z" fill="white"/>
<defs>
<linearGradient id="paint0_linear_34_396" x1="8.5" y1="36.4517" x2="35" y2="8.95166" gradientUnits="userSpaceOnUse">
<stop stop-color="#EEA054"/>
<stop offset="0.502762" stop-color="#D64763"/>
<stop offset="1" stop-color="#B62A99"/>
</linearGradient>
</defs>
</svg>
