<svg width="260" height="72" viewBox="0 0 260 72" fill="none" xmlns="http://www.w3.org/2000/svg">
<rect width="260" height="72" fill="#AFAFAF"/>
<path d="M103.774 42C103.654 42 103.552 41.964 103.468 41.892C103.396 41.808 103.36 41.706 103.36 41.586V31.02H98.896V33.918C98.896 35.358 98.818 36.588 98.662 37.608C98.506 38.616 98.266 39.438 97.942 40.074C97.618 40.698 97.198 41.166 96.682 41.478C96.178 41.778 95.566 41.946 94.846 41.982C94.726 41.994 94.624 41.958 94.54 41.874C94.456 41.79 94.414 41.682 94.414 41.55V40.758C94.414 40.518 94.54 40.38 94.792 40.344C95.164 40.284 95.494 40.122 95.782 39.858C96.082 39.594 96.334 39.204 96.538 38.688C96.742 38.16 96.898 37.488 97.006 36.672C97.114 35.844 97.168 34.854 97.168 33.702V29.814C97.168 29.694 97.204 29.598 97.276 29.526C97.36 29.442 97.462 29.4 97.582 29.4H104.692C104.824 29.4 104.926 29.442 104.998 29.526C105.082 29.598 105.124 29.7 105.124 29.832V41.586C105.124 41.706 105.082 41.808 104.998 41.892C104.926 41.964 104.824 42 104.692 42H103.774ZM111.857 42.18C110.945 42.18 110.183 42.006 109.571 41.658C108.959 41.31 108.491 40.83 108.167 40.218C107.843 39.594 107.663 38.886 107.627 38.094C107.615 37.89 107.609 37.632 107.609 37.32C107.609 36.996 107.615 36.738 107.627 36.546C107.663 35.742 107.843 35.034 108.167 34.422C108.503 33.81 108.977 33.33 109.589 32.982C110.201 32.634 110.957 32.46 111.857 32.46C112.757 32.46 113.513 32.634 114.125 32.982C114.737 33.33 115.205 33.81 115.529 34.422C115.865 35.034 116.051 35.742 116.087 36.546C116.099 36.738 116.105 36.996 116.105 37.32C116.105 37.632 116.099 37.89 116.087 38.094C116.051 38.886 115.871 39.594 115.547 40.218C115.223 40.83 114.755 41.31 114.143 41.658C113.531 42.006 112.769 42.18 111.857 42.18ZM111.857 40.794C112.601 40.794 113.195 40.56 113.639 40.092C114.083 39.612 114.323 38.916 114.359 38.004C114.371 37.824 114.377 37.596 114.377 37.32C114.377 37.044 114.371 36.816 114.359 36.636C114.323 35.724 114.083 35.034 113.639 34.566C113.195 34.086 112.601 33.846 111.857 33.846C111.113 33.846 110.513 34.086 110.057 34.566C109.613 35.034 109.379 35.724 109.355 36.636C109.343 36.816 109.337 37.044 109.337 37.32C109.337 37.596 109.343 37.824 109.355 38.004C109.379 38.916 109.613 39.612 110.057 40.092C110.513 40.56 111.113 40.794 111.857 40.794ZM118.773 42C118.653 42 118.551 41.964 118.467 41.892C118.395 41.808 118.359 41.706 118.359 41.586V33.054C118.359 32.934 118.395 32.838 118.467 32.766C118.551 32.682 118.653 32.64 118.773 32.64H124.155C124.275 32.64 124.371 32.682 124.443 32.766C124.515 32.838 124.551 32.934 124.551 33.054V33.666C124.551 33.786 124.515 33.888 124.443 33.972C124.371 34.044 124.275 34.08 124.155 34.08H120.033V41.586C120.033 41.706 119.997 41.808 119.925 41.892C119.853 41.964 119.757 42 119.637 42H118.773ZM129.928 42.18C129.016 42.18 128.254 42.006 127.642 41.658C127.03 41.31 126.562 40.83 126.238 40.218C125.914 39.594 125.734 38.886 125.698 38.094C125.686 37.89 125.68 37.632 125.68 37.32C125.68 36.996 125.686 36.738 125.698 36.546C125.734 35.742 125.914 35.034 126.238 34.422C126.574 33.81 127.048 33.33 127.66 32.982C128.272 32.634 129.028 32.46 129.928 32.46C130.828 32.46 131.584 32.634 132.196 32.982C132.808 33.33 133.276 33.81 133.6 34.422C133.936 35.034 134.122 35.742 134.158 36.546C134.17 36.738 134.176 36.996 134.176 37.32C134.176 37.632 134.17 37.89 134.158 38.094C134.122 38.886 133.942 39.594 133.618 40.218C133.294 40.83 132.826 41.31 132.214 41.658C131.602 42.006 130.84 42.18 129.928 42.18ZM129.928 40.794C130.672 40.794 131.266 40.56 131.71 40.092C132.154 39.612 132.394 38.916 132.43 38.004C132.442 37.824 132.448 37.596 132.448 37.32C132.448 37.044 132.442 36.816 132.43 36.636C132.394 35.724 132.154 35.034 131.71 34.566C131.266 34.086 130.672 33.846 129.928 33.846C129.184 33.846 128.584 34.086 128.128 34.566C127.684 35.034 127.45 35.724 127.426 36.636C127.414 36.816 127.408 37.044 127.408 37.32C127.408 37.596 127.414 37.824 127.426 38.004C127.45 38.916 127.684 39.612 128.128 40.092C128.584 40.56 129.184 40.794 129.928 40.794ZM139.292 42C139.172 42 139.07 41.964 138.986 41.892C138.914 41.808 138.878 41.706 138.878 41.586V34.08H135.746C135.626 34.08 135.524 34.044 135.44 33.972C135.368 33.888 135.332 33.786 135.332 33.666V33.054C135.332 32.934 135.368 32.838 135.44 32.766C135.524 32.682 135.626 32.64 135.746 32.64H143.666C143.786 32.64 143.882 32.682 143.954 32.766C144.038 32.838 144.08 32.934 144.08 33.054V33.666C144.08 33.786 144.038 33.888 143.954 33.972C143.882 34.044 143.786 34.08 143.666 34.08H140.534V41.586C140.534 41.706 140.498 41.808 140.426 41.892C140.354 41.964 140.252 42 140.12 42H139.292ZM146.037 42C145.929 42 145.833 41.964 145.749 41.892C145.677 41.808 145.641 41.718 145.641 41.622V33.054C145.641 32.934 145.677 32.838 145.749 32.766C145.833 32.682 145.935 32.64 146.055 32.64H146.919C147.039 32.64 147.135 32.682 147.207 32.766C147.279 32.838 147.315 32.934 147.315 33.054V40.686L146.847 40.2L152.301 32.91C152.361 32.838 152.427 32.778 152.499 32.73C152.571 32.67 152.661 32.64 152.769 32.64H153.597C153.693 32.64 153.777 32.676 153.849 32.748C153.933 32.82 153.975 32.904 153.975 33V41.586C153.975 41.706 153.933 41.808 153.849 41.892C153.777 41.964 153.681 42 153.561 42H152.715C152.583 42 152.481 41.964 152.409 41.892C152.337 41.808 152.301 41.706 152.301 41.586V34.404L152.805 34.386L147.315 41.73C147.267 41.79 147.207 41.85 147.135 41.91C147.063 41.97 146.967 42 146.847 42H146.037ZM157.023 42C156.903 42 156.801 41.964 156.717 41.892C156.645 41.808 156.609 41.706 156.609 41.586V33.054C156.609 32.934 156.645 32.838 156.717 32.766C156.801 32.682 156.903 32.64 157.023 32.64H164.169C164.289 32.64 164.385 32.682 164.457 32.766C164.541 32.838 164.583 32.934 164.583 33.054V41.586C164.583 41.706 164.541 41.808 164.457 41.892C164.385 41.964 164.289 42 164.169 42H163.305C163.185 42 163.089 41.964 163.017 41.892C162.945 41.808 162.909 41.706 162.909 41.586V34.08H158.283V41.586C158.283 41.706 158.247 41.808 158.175 41.892C158.103 41.964 158.007 42 157.887 42H157.023Z" fill="black"/>
</svg>
