<svg width="21" height="21" viewBox="0 0 21 21" fill="none" xmlns="http://www.w3.org/2000/svg">
<g clip-path="url(#clip0_34_383)">
<path fill-rule="evenodd" clip-rule="evenodd" d="M13.9081 1.88083C13.2396 1.88083 12.5985 2.14662 12.1257 2.61974L4.40965 10.3422C3.62183 11.1307 3.17923 12.2001 3.17923 13.3152C3.17923 14.4303 3.62183 15.4997 4.40965 16.2881C5.19747 17.0766 6.26598 17.5196 7.38012 17.5196C8.49427 17.5196 9.56278 17.0766 10.3506 16.2881L18.0667 8.56563C18.3946 8.23747 18.9262 8.23747 19.2541 8.56563C19.582 8.8938 19.582 9.42585 19.2541 9.75402L11.538 17.4765C10.4353 18.5802 8.93963 19.2002 7.38012 19.2002C5.82062 19.2002 4.32499 18.5802 3.22225 17.4765C2.11951 16.3729 1.5 14.876 1.5 13.3152C1.5 11.7544 2.11951 10.2575 3.22225 9.15385L10.9383 1.43136C11.726 0.643057 12.7943 0.200195 13.9081 0.200195C15.022 0.200195 16.0903 0.643057 16.878 1.43136C17.6656 2.21965 18.1081 3.28882 18.1081 4.40364C18.1081 5.51846 17.6656 6.58763 16.878 7.37593L9.15348 15.0984C8.68093 15.5714 8.04002 15.8371 7.37173 15.8371C6.70344 15.8371 6.06252 15.5714 5.58997 15.0984C5.11742 14.6255 4.85194 13.984 4.85194 13.3152C4.85194 12.6463 5.11742 12.0049 5.58997 11.5319L12.7187 4.40572C13.0468 4.07775 13.5784 4.07807 13.9061 4.40642C14.2338 4.73478 14.2335 5.26684 13.9054 5.59481L6.77737 12.7203C6.61995 12.8781 6.53118 13.0922 6.53118 13.3152C6.53118 13.5383 6.61973 13.7523 6.77737 13.91C6.935 14.0678 7.1488 14.1564 7.37173 14.1564C7.59465 14.1564 7.80845 14.0678 7.96609 13.91L15.6906 6.18754C16.1631 5.71445 16.4289 5.07258 16.4289 4.40364C16.4289 3.73455 16.1633 3.09286 15.6906 2.61974C15.2178 2.14662 14.5767 1.88083 13.9081 1.88083Z" fill="#F9FAFF"/>
</g>
<defs>
<clipPath id="clip0_34_383">
<rect width="20" height="20" fill="white" transform="translate(0.5 0.200195)"/>
</clipPath>
</defs>
</svg>
