<svg width="20" height="21" viewBox="0 0 20 21" fill="none" xmlns="http://www.w3.org/2000/svg">
<g clip-path="url(#clip0_34_851)">
<path fill-rule="evenodd" clip-rule="evenodd" d="M13.4081 2.18063C12.7396 2.18063 12.0985 2.44643 11.6257 2.91955L3.90965 10.642C3.12183 11.4305 2.67923 12.4999 2.67923 13.615C2.67923 14.7301 3.12183 15.7995 3.90965 16.5879C4.69747 17.3764 5.76598 17.8194 6.88012 17.8194C7.99427 17.8194 9.06278 17.3764 9.8506 16.5879L17.5667 8.86544C17.8946 8.53727 18.4262 8.53727 18.7541 8.86544C19.082 9.1936 19.082 9.72566 18.7541 10.0538L11.038 17.7763C9.93526 18.88 8.43963 19.5 6.88012 19.5C5.32062 19.5 3.82499 18.88 2.72225 17.7763C1.61951 16.6727 1 15.1758 1 13.615C1 12.0542 1.61951 10.5573 2.72225 9.45366L10.4383 1.73116C11.226 0.942862 12.2943 0.5 13.4081 0.5C14.522 0.5 15.5903 0.942861 16.378 1.73116C17.1656 2.51946 17.6081 3.58862 17.6081 4.70345C17.6081 5.81827 17.1656 6.88743 16.378 7.67573L8.65348 15.3982C8.18093 15.8712 7.54002 16.1369 6.87173 16.1369C6.20344 16.1369 5.56252 15.8712 5.08997 15.3982C4.61742 14.9253 4.35194 14.2838 4.35194 13.615C4.35194 12.9461 4.61742 12.3047 5.08997 11.8318L12.2187 4.70553C12.5468 4.37756 13.0784 4.37787 13.4061 4.70623C13.7338 5.03458 13.7335 5.56664 13.4054 5.89461L6.27737 13.0201C6.11995 13.1779 6.03118 13.392 6.03118 13.615C6.03118 13.8381 6.11973 14.0521 6.27737 14.2098C6.435 14.3676 6.6488 14.4562 6.87173 14.4562C7.09465 14.4562 7.30845 14.3676 7.46609 14.2098L15.1906 6.48735C15.6631 6.01426 15.9289 5.37239 15.9289 4.70345C15.9289 4.03435 15.6633 3.39267 15.1906 2.91955C14.7178 2.44643 14.0767 2.18063 13.4081 2.18063Z" fill="#0B0E2E"/>
</g>
<defs>
<clipPath id="clip0_34_851">
<rect width="20" height="20" fill="white" transform="translate(0 0.5)"/>
</clipPath>
</defs>
</svg>
