<svg width="61" height="48" viewBox="0 0 61 48" fill="none" xmlns="http://www.w3.org/2000/svg">
<path d="M8.44749 48L5.83311 45.3333C10.1904 41.4222 13.2405 37.4667 14.9834 33.4667C16.7264 29.3778 17.4671 26.2222 17.2057 24L12.2383 26.6667L0.473633 13.3333L14.8527 0C18.9486 1.68889 22.3473 4.31112 25.0488 7.86667C27.7503 11.4222 29.1011 16.0444 29.1011 21.7333C29.1011 25.0222 28.4039 28.0889 27.0096 30.9333C25.7024 33.6889 23.9595 36.1778 21.7808 38.4C19.6893 40.6222 17.4671 42.5333 15.1142 44.1333C12.7612 45.7333 10.539 47.0222 8.44749 48ZM39.82 48L37.2057 45.3333C41.563 41.4222 44.6131 37.4667 46.356 33.4667C48.0989 29.3778 48.8396 26.2222 48.5782 24L43.6109 26.6667L31.8462 13.3333L46.2253 0C50.3211 1.68889 53.7198 4.31112 56.4213 7.86667C59.1229 11.4222 60.4736 16.0444 60.4736 21.7333C60.4736 25.0222 59.7765 28.0889 58.3821 30.9333C57.0749 33.6889 55.332 36.1778 53.1534 38.4C51.0619 40.6222 48.8396 42.5333 46.4867 44.1333C44.1338 45.7333 41.9115 47.0222 39.82 48Z" fill="#DADDFF"/>
</svg>
