<svg width="40" height="41" viewBox="0 0 40 41" fill="none" xmlns="http://www.w3.org/2000/svg">
<circle cx="20" cy="20.9517" r="20" fill="#2F89CE"/>
<path d="M9.3507 21.3257L13.9488 23.0403L15.7413 28.8074C15.8192 29.197 16.2868 29.275 16.5985 29.0412L19.1703 26.937C19.4041 26.7032 19.7938 26.7032 20.1055 26.937L24.7036 30.2881C25.0154 30.5219 25.483 30.366 25.5609 29.9764L28.99 13.6103C29.0679 13.2206 28.6782 12.831 28.2886 12.9869L9.3507 20.3126C8.8831 20.4685 8.8831 21.1699 9.3507 21.3257ZM15.5075 22.183L24.5477 16.6497C24.7036 16.5718 24.8595 16.8056 24.7036 16.8835L17.2999 23.8196C17.0661 24.0534 16.8323 24.3651 16.8323 24.7548L16.5985 26.6252C16.5985 26.859 16.2089 26.937 16.1309 26.6252L15.1957 23.1961C14.9619 22.8065 15.1178 22.3389 15.5075 22.183Z" fill="white"/>
</svg>
