<svg width="40" height="41" viewBox="0 0 40 41" fill="none" xmlns="http://www.w3.org/2000/svg">
<circle cx="20" cy="20.9517" r="20" fill="#7294C7"/>
<path d="M29.8065 26.0669C29.8065 25.9839 29.7235 25.9839 29.7235 25.9009C29.3914 25.2367 28.6442 24.4065 27.6479 23.4932C27.1498 23.0781 26.9007 22.746 26.7346 22.58C26.4856 22.2479 26.4856 21.9988 26.5686 21.6667C26.6516 21.4176 26.9837 21.0025 27.5649 20.2553C27.897 19.8402 28.063 19.5911 28.3121 19.3421C29.5574 17.6816 30.1386 16.6023 29.9725 16.1042L29.8895 16.0211C29.8065 15.9381 29.7235 15.8551 29.5574 15.8551C29.3914 15.7721 29.1423 15.7721 28.8932 15.8551H25.7384C25.6554 15.8551 25.6553 15.8551 25.4893 15.8551C25.4063 15.8551 25.3233 15.8551 25.3233 15.8551H25.2402H25.1572L25.0742 15.9381C24.9912 16.0211 24.9912 16.0211 24.9912 16.1042C24.6591 17.0174 24.244 17.7646 23.8288 18.5949C23.5798 19.01 23.3307 19.4251 23.0816 19.7572C22.8326 20.0893 22.6665 20.3383 22.5005 20.5044C22.3344 20.6704 22.1684 20.7534 22.0854 20.9195C22.0023 21.0025 21.8363 21.0855 21.8363 21.0025C21.7533 21.0025 21.6702 21.0025 21.6702 20.9195C21.5872 20.8365 21.5042 20.7534 21.4212 20.6704C21.3382 20.5874 21.3382 20.4214 21.2551 20.2553C21.2551 20.0893 21.2551 19.9232 21.2551 19.8402C21.2551 19.7572 21.2551 19.5081 21.2551 19.3421C21.2551 19.093 21.2551 18.9269 21.2551 18.8439C21.2551 18.5949 21.2551 18.2628 21.2551 17.9307C21.2551 17.5986 21.2551 17.3495 21.2551 17.1835C21.2551 17.0174 21.2551 16.7684 21.2551 16.6023C21.2551 16.3532 21.2551 16.1872 21.2551 16.1042C21.2551 16.0211 21.1721 15.8551 21.1721 15.7721C21.0891 15.6891 21.0061 15.606 20.923 15.523C20.84 15.44 20.674 15.44 20.591 15.357C20.1758 15.2739 19.6777 15.1909 19.0966 15.1909C17.7682 15.1909 16.8549 15.2739 16.5228 15.44C16.3568 15.523 16.1907 15.606 16.1077 15.7721C15.9417 15.9381 15.9417 16.0211 16.0247 16.0211C16.4398 16.1042 16.7719 16.2702 16.938 16.5193L17.021 16.6853C17.104 16.7684 17.104 16.9344 17.187 17.1835C17.27 17.4325 17.27 17.6816 17.27 18.0137C17.27 18.5118 17.27 19.01 17.27 19.3421C17.27 19.7572 17.187 20.0062 17.187 20.2553C17.187 20.5044 17.104 20.6704 17.021 20.7535C16.938 20.9195 16.9379 21.0025 16.8549 21.0025C16.8549 21.0025 16.8549 21.0855 16.7719 21.0855C16.6889 21.0855 16.6059 21.1686 16.4398 21.1686C16.3568 21.1686 16.1907 21.0855 16.1077 21.0025C15.9417 20.9195 15.7756 20.7535 15.6926 20.5874C15.5266 20.4214 15.3605 20.1723 15.1945 19.8402C15.0284 19.5081 14.7793 19.176 14.6133 18.6779L14.4473 18.3458C14.3642 18.1797 14.1982 17.8476 14.0321 17.4325C13.8661 17.0174 13.7001 16.6853 13.534 16.2702C13.451 16.1042 13.368 16.0211 13.2849 15.9381H13.2019C13.2019 15.9381 13.1189 15.8551 13.0359 15.8551C12.9528 15.8551 12.8698 15.7721 12.7868 15.7721H9.79798C9.46588 15.7721 9.29984 15.8551 9.21682 15.9381L9.13379 16.0211C9.13379 16.0211 9.13379 16.1042 9.13379 16.1872C9.13379 16.2702 9.13379 16.3532 9.21682 16.5193C9.63193 17.5156 10.1301 18.5118 10.6282 19.5081C11.1263 20.4214 11.6245 21.2516 11.9566 21.8328C12.3717 22.4139 12.7038 22.9951 13.1189 23.4932C13.534 23.9913 13.7831 24.3234 13.8661 24.4895C14.0321 24.6555 14.1152 24.7385 14.1982 24.8216L14.4473 25.0706C14.6133 25.2367 14.8624 25.4858 15.1945 25.7348C15.5266 25.9839 15.9417 26.233 16.3568 26.482C16.7719 26.7311 17.27 26.8972 17.7682 27.0632C18.3493 27.2292 18.8475 27.3123 19.3456 27.2292H20.591C20.84 27.2292 21.0061 27.1462 21.1721 26.9802L21.2551 26.8971C21.2551 26.8141 21.3382 26.8141 21.3382 26.7311C21.3382 26.6481 21.3382 26.5651 21.3382 26.399C21.3382 26.0669 21.3382 25.8179 21.4212 25.5688C21.5042 25.3197 21.5042 25.1537 21.5872 24.9876C21.6703 24.8216 21.7533 24.7385 21.8363 24.6555C21.9193 24.5725 22.0024 24.4895 22.0024 24.4895H22.0854C22.2514 24.4065 22.5005 24.4895 22.6665 24.6555C22.9156 24.8216 23.1647 25.0706 23.3307 25.3197C23.4967 25.5688 23.7458 25.8179 24.0779 26.1499C24.41 26.482 24.6591 26.7311 24.8251 26.8141L25.0742 26.9802C25.2402 27.0632 25.4063 27.1462 25.6554 27.2292C25.9044 27.3123 26.0705 27.3123 26.2365 27.3123L29.0593 27.2292C29.3084 27.2292 29.5574 27.1462 29.7235 27.0632C29.8895 26.9802 29.9725 26.8971 29.9725 26.7311C29.9725 26.6481 29.9725 26.482 29.9725 26.399C29.8065 26.233 29.8065 26.1499 29.8065 26.0669Z" fill="white"/>
</svg>
