<svg width="40" height="41" viewBox="0 0 40 41" fill="none" xmlns="http://www.w3.org/2000/svg">
<circle cx="20" cy="20.9517" r="20" fill="#48C95F"/>
<path d="M27.9268 13.0142C25.9512 11.0454 23.3171 9.95166 20.5366 9.95166C14.7561 9.95166 10.0732 14.6183 10.0732 20.3787C10.0732 22.2017 10.5854 24.0246 11.4634 25.5558L10 30.9517L15.561 29.4933C17.0976 30.2954 18.7805 30.7329 20.5366 30.7329C26.3171 30.7329 31 26.0662 31 20.3058C30.9268 17.6079 29.9024 14.9829 27.9268 13.0142ZM25.5854 24.0975C25.3659 24.6808 24.3415 25.2642 23.8293 25.3371C23.3902 25.41 22.8049 25.41 22.2195 25.2642C21.8537 25.1183 21.3415 24.9725 20.7561 24.6808C18.122 23.5871 16.439 20.9621 16.2927 20.7433C16.1463 20.5975 15.1951 19.3579 15.1951 18.0454C15.1951 16.7329 15.8537 16.1496 16.0732 15.8579C16.2927 15.5662 16.5854 15.5662 16.8049 15.5662C16.9512 15.5662 17.1707 15.5662 17.3171 15.5662C17.4634 15.5662 17.6829 15.4933 17.9024 16.0037C18.122 16.5142 18.6341 17.8267 18.7073 17.8996C18.7805 18.0454 18.7805 18.1912 18.7073 18.3371C18.6341 18.4829 18.561 18.6287 18.4146 18.7746C18.2683 18.9204 18.1219 19.1392 18.0488 19.2121C17.9024 19.3579 17.7561 19.5037 17.9024 19.7225C18.0488 20.0142 18.561 20.8162 19.3659 21.5454C20.3902 22.4204 21.1951 22.7121 21.4878 22.8579C21.7805 23.0037 21.9268 22.9308 22.0732 22.785C22.2195 22.6392 22.7317 22.0558 22.878 21.7642C23.0244 21.4725 23.2439 21.5454 23.4634 21.6183C23.6829 21.6912 25 22.3475 25.2195 22.4933C25.5122 22.6392 25.6585 22.7121 25.7317 22.785C25.8049 23.0037 25.8049 23.5142 25.5854 24.0975Z" fill="white"/>
</svg>
